<svg data-v-423bf9ae="" xmlns="http://www.w3.org/2000/svg" viewBox="0 0 786 111" class="iconLeft"><!----><!----><!----><g data-v-423bf9ae="" id="7c0332eb-d326-461a-b54c-ae3f957b0a36" fill="black" transform="matrix(5.410279273986816,0,0,5.410279273986816,120.25480651855469,10.850197792053223)"><path d="M3.06 13.64L1.01 13.64L1.80 3.63L5.22 3.63L6.71 8.83L7.10 10.69L7.23 10.69L7.66 8.83L9.14 3.63L12.77 3.63L13.56 13.64L10.96 13.64L10.63 6.90L10.62 5.10L10.45 5.10L10.03 6.85L8.11 13.45L5.91 13.45L3.98 6.86L3.54 5.10L3.38 5.10L3.37 6.89L3.06 13.64ZM19.50 12.60L19.50 12.60L19.50 12.60Q19.29 12.77 19.03 12.97L19.03 12.97L19.03 12.97Q18.77 13.18 18.46 13.36L18.46 13.36L18.46 13.36Q18.16 13.54 17.81 13.66L17.81 13.66L17.81 13.66Q17.46 13.78 17.07 13.78L17.07 13.78L17.07 13.78Q16.60 13.78 16.24 13.60L16.24 13.60L16.24 13.60Q15.89 13.42 15.65 13.13L15.65 13.13L15.65 13.13Q15.42 12.83 15.30 12.46L15.30 12.46L15.30 12.46Q15.18 12.09 15.18 11.72L15.18 11.72L15.18 11.72Q15.18 11.22 15.40 10.77L15.40 10.77L15.40 10.77Q15.63 10.33 16.12 10.00L16.12 10.00L16.12 10.00Q16.60 9.67 17.36 9.47L17.36 9.47L17.36 9.47Q18.11 9.28 19.15 9.28L19.15 9.28L19.41 9.28L19.41 8.86L19.41 8.86Q19.41 8.31 19.07 8.02L19.07 8.02L19.07 8.02Q18.73 7.73 18.16 7.73L18.16 7.73L18.16 7.73Q17.90 7.73 17.63 7.79L17.63 7.79L17.63 7.79Q17.35 7.85 17.07 7.96L17.07 7.96L17.07 7.96Q16.79 8.07 16.52 8.21L16.52 8.21L16.52 8.21Q16.26 8.35 16.02 8.52L16.02 8.52L15.90 8.45L15.50 7.01L15.50 7.01Q16.38 6.60 17.17 6.43L17.17 6.43L17.17 6.43Q17.95 6.26 18.71 6.26L18.71 6.26L18.71 6.26Q19.36 6.26 19.92 6.38L19.92 6.38L19.92 6.38Q20.49 6.51 20.90 6.78L20.90 6.78L20.90 6.78Q21.31 7.06 21.55 7.51L21.55 7.51L21.55 7.51Q21.79 7.95 21.79 8.60L21.79 8.60L21.79 11.51L21.79 11.51Q21.79 11.63 21.81 11.75L21.81 11.75L21.81 11.75Q21.83 11.87 21.89 11.97L21.89 11.97L21.89 11.97Q21.94 12.07 22.04 12.13L22.04 12.13L22.04 12.13Q22.13 12.19 22.29 12.19L22.29 12.19L22.29 12.19Q22.38 12.19 22.47 12.17L22.47 12.17L22.47 12.17Q22.57 12.16 22.68 12.11L22.68 12.11L22.68 13.13L22.68 13.13Q22.24 13.43 21.79 13.61L21.79 13.61L21.79 13.61Q21.35 13.78 20.93 13.78L20.93 13.78L20.93 13.78Q20.39 13.78 20.04 13.47L20.04 13.47L20.04 13.47Q19.69 13.17 19.50 12.60ZM19.41 11.70L19.41 10.12L19.15 10.12L19.15 10.12Q18.61 10.12 18.26 10.20L18.26 10.20L18.26 10.20Q17.91 10.27 17.70 10.42L17.70 10.42L17.70 10.42Q17.49 10.56 17.41 10.76L17.41 10.76L17.41 10.76Q17.33 10.96 17.33 11.22L17.33 11.22L17.33 11.22Q17.33 11.48 17.40 11.66L17.40 11.66L17.40 11.66Q17.48 11.84 17.61 11.96L17.61 11.96L17.61 11.96Q17.73 12.08 17.90 12.13L17.90 12.13L17.90 12.13Q18.07 12.19 18.25 12.19L18.25 12.19L18.25 12.19Q18.50 12.19 18.80 12.08L18.80 12.08L18.80 12.08Q19.09 11.98 19.41 11.70L19.41 11.70ZM18.98 5.17L17.21 5.17L18.57 2.69L20.92 2.69L18.98 5.17ZM23.55 13.28L23.89 11.73L24.01 11.66L24.01 11.66Q24.58 11.97 25.19 12.14L25.19 12.14L25.19 12.14Q25.80 12.31 26.30 12.31L26.30 12.31L26.30 12.31Q26.58 12.31 26.79 12.25L26.79 12.25L26.79 12.25Q27.00 12.20 27.13 12.10L27.13 12.10L27.13 12.10Q27.26 12.00 27.33 11.88L27.33 11.88L27.33 11.88Q27.39 11.75 27.39 11.61L27.39 11.61L27.39 11.61Q27.39 11.39 27.24 11.25L27.24 11.25L27.24 11.25Q27.08 11.10 26.83 11.00L26.83 11.00L26.83 11.00Q26.57 10.90 26.25 10.82L26.25 10.82L26.25 10.82Q25.92 10.74 25.58 10.64L25.58 10.64L25.58 10.64Q25.25 10.54 24.92 10.40L24.92 10.40L24.92 10.40Q24.60 10.27 24.34 10.05L24.34 10.05L24.34 10.05Q24.08 9.83 23.93 9.51L23.93 9.51L23.93 9.51Q23.78 9.18 23.78 8.72L23.78 8.72L23.78 8.72Q23.78 8.18 24.00 7.72L24.00 7.72L24.00 7.72Q24.22 7.27 24.65 6.95L24.65 6.95L24.65 6.95Q25.09 6.62 25.72 6.44L25.72 6.44L25.72 6.44Q26.36 6.26 27.19 6.26L27.19 6.26L27.19 6.26Q27.41 6.26 27.67 6.28L27.67 6.28L27.67 6.28Q27.94 6.29 28.22 6.32L28.22 6.32L28.22 6.32Q28.49 6.34 28.76 6.39L28.76 6.39L28.76 6.39Q29.02 6.44 29.23 6.50L29.23 6.50L28.88 8.04L28.75 8.11L28.75 8.11Q28.26 7.91 27.78 7.82L27.78 7.82L27.78 7.82Q27.30 7.73 26.95 7.73L26.95 7.73L26.95 7.73Q26.67 7.73 26.48 7.79L26.48 7.79L26.48 7.79Q26.28 7.84 26.15 7.93L26.15 7.93L26.15 7.93Q26.03 8.03 25.97 8.15L25.97 8.15L25.97 8.15Q25.92 8.26 25.92 8.40L25.92 8.40L25.92 8.40Q25.92 8.64 26.07 8.79L26.07 8.79L26.07 8.79Q26.23 8.93 26.48 9.03L26.48 9.03L26.48 9.03Q26.74 9.13 27.06 9.21L27.06 9.21L27.06 9.21Q27.39 9.29 27.73 9.38L27.73 9.38L27.73 9.38Q28.07 9.47 28.40 9.61L28.40 9.61L28.40 9.61Q28.72 9.74 28.98 9.96L28.98 9.96L28.98 9.96Q29.23 10.18 29.39 10.50L29.39 10.50L29.39 10.50Q29.54 10.81 29.54 11.28L29.54 11.28L29.54 11.28Q29.54 11.78 29.34 12.23L29.34 12.23L29.34 12.23Q29.14 12.69 28.73 13.03L28.73 13.03L28.73 13.03Q28.32 13.37 27.70 13.58L27.70 13.58L27.70 13.58Q27.07 13.78 26.22 13.78L26.22 13.78L26.22 13.78Q25.90 13.78 25.56 13.75L25.56 13.75L25.56 13.75Q25.21 13.72 24.87 13.66L24.87 13.66L24.87 13.66Q24.52 13.60 24.18 13.50L24.18 13.50L24.18 13.50Q23.84 13.41 23.55 13.28L23.55 13.28ZM36.67 11.87L36.67 12.89L36.67 12.89Q36.07 13.38 35.45 13.58L35.45 13.58L35.45 13.58Q34.84 13.78 34.17 13.78L34.17 13.78L34.17 13.78Q33.35 13.78 32.70 13.53L32.70 13.53L32.70 13.53Q32.05 13.28 31.60 12.82L31.60 12.82L31.60 12.82Q31.16 12.37 30.92 11.75L30.92 11.75L30.92 11.75Q30.69 11.12 30.69 10.37L30.69 10.37L30.69 10.37Q30.69 9.46 31.02 8.70L31.02 8.70L31.02 8.70Q31.36 7.94 31.95 7.40L31.95 7.40L31.95 7.40Q32.53 6.86 33.33 6.56L33.33 6.56L33.33 6.56Q34.12 6.26 35.03 6.26L35.03 6.26L35.03 6.26Q35.36 6.26 35.82 6.32L35.82 6.32L35.82 6.32Q36.29 6.37 36.76 6.53L36.76 6.53L36.42 8.07L36.29 8.14L36.29 8.14Q36.18 8.07 36.03 8.00L36.03 8.00L36.03 8.00Q35.88 7.92 35.70 7.86L35.70 7.86L35.70 7.86Q35.53 7.81 35.33 7.77L35.33 7.77L35.33 7.77Q35.13 7.73 34.93 7.73L34.93 7.73L34.93 7.73Q34.54 7.73 34.21 7.89L34.21 7.89L34.21 7.89Q33.88 8.04 33.64 8.33L33.64 8.33L33.64 8.33Q33.40 8.62 33.27 9.04L33.27 9.04L33.27 9.04Q33.13 9.45 33.13 9.98L33.13 9.98L33.13 9.98Q33.13 10.55 33.29 10.97L33.29 10.97L33.29 10.97Q33.45 11.39 33.73 11.66L33.73 11.66L33.73 11.66Q34.02 11.93 34.41 12.06L34.41 12.06L34.41 12.06Q34.80 12.19 35.27 12.19L35.27 12.19L35.27 12.19Q35.59 12.19 35.91 12.12L35.91 12.12L35.91 12.12Q36.23 12.05 36.67 11.87L36.67 11.87ZM42.26 12.60L42.26 12.60L42.26 12.60Q42.05 12.77 41.79 12.97L41.79 12.97L41.79 12.97Q41.54 13.18 41.23 13.36L41.23 13.36L41.23 13.36Q40.92 13.54 40.57 13.66L40.57 13.66L40.57 13.66Q40.22 13.78 39.83 13.78L39.83 13.78L39.83 13.78Q39.36 13.78 39.01 13.60L39.01 13.60L39.01 13.60Q38.65 13.42 38.41 13.13L38.41 13.13L38.41 13.13Q38.18 12.83 38.06 12.46L38.06 12.46L38.06 12.46Q37.94 12.09 37.94 11.72L37.94 11.72L37.94 11.72Q37.94 11.22 38.17 10.77L38.17 10.77L38.17 10.77Q38.40 10.33 38.88 10.00L38.88 10.00L38.88 10.00Q39.37 9.67 40.12 9.47L40.12 9.47L40.12 9.47Q40.87 9.28 41.91 9.28L41.91 9.28L42.18 9.28L42.18 8.86L42.18 8.86Q42.18 8.31 41.84 8.02L41.84 8.02L41.84 8.02Q41.49 7.73 40.92 7.73L40.92 7.73L40.92 7.73Q40.67 7.73 40.39 7.79L40.39 7.79L40.39 7.79Q40.11 7.85 39.83 7.96L39.83 7.96L39.83 7.96Q39.55 8.07 39.29 8.21L39.29 8.21L39.29 8.21Q39.02 8.35 38.79 8.52L38.79 8.52L38.66 8.45L38.26 7.01L38.26 7.01Q39.14 6.60 39.93 6.43L39.93 6.43L39.93 6.43Q40.71 6.26 41.47 6.26L41.47 6.26L41.47 6.26Q42.12 6.26 42.69 6.38L42.69 6.38L42.69 6.38Q43.25 6.51 43.66 6.78L43.66 6.78L43.66 6.78Q44.08 7.06 44.32 7.51L44.32 7.51L44.32 7.51Q44.56 7.95 44.56 8.60L44.56 8.60L44.56 11.51L44.56 11.51Q44.56 11.63 44.58 11.75L44.58 11.75L44.58 11.75Q44.60 11.87 44.65 11.97L44.65 11.97L44.65 11.97Q44.71 12.07 44.80 12.13L44.80 12.13L44.80 12.13Q44.90 12.19 45.05 12.19L45.05 12.19L45.05 12.19Q45.14 12.19 45.24 12.17L45.24 12.17L45.24 12.17Q45.33 12.16 45.45 12.11L45.45 12.11L45.45 13.13L45.45 13.13Q45.00 13.43 44.56 13.61L44.56 13.61L44.56 13.61Q44.11 13.78 43.70 13.78L43.70 13.78L43.70 13.78Q43.16 13.78 42.81 13.47L42.81 13.47L42.81 13.47Q42.46 13.17 42.26 12.60ZM42.18 11.70L42.18 10.12L41.92 10.12L41.92 10.12Q41.38 10.12 41.03 10.20L41.03 10.20L41.03 10.20Q40.67 10.27 40.47 10.42L40.47 10.42L40.47 10.42Q40.26 10.56 40.17 10.76L40.17 10.76L40.17 10.76Q40.09 10.96 40.09 11.22L40.09 11.22L40.09 11.22Q40.09 11.48 40.17 11.66L40.17 11.66L40.17 11.66Q40.24 11.84 40.37 11.96L40.37 11.96L40.37 11.96Q40.50 12.08 40.66 12.13L40.66 12.13L40.66 12.13Q40.83 12.19 41.02 12.19L41.02 12.19L41.02 12.19Q41.27 12.19 41.56 12.08L41.56 12.08L41.56 12.08Q41.85 11.98 42.18 11.70L42.18 11.70ZM46.72 13.64L46.72 6.40L48.72 6.40L49.01 8.52L49.01 8.52Q49.12 8.33 49.23 8.12L49.23 8.12L49.23 8.12Q49.34 7.92 49.44 7.74L49.44 7.74L49.44 7.74Q49.54 7.57 49.62 7.44L49.62 7.44L49.62 7.44Q49.70 7.31 49.73 7.25L49.73 7.25L49.73 7.25Q49.86 7.03 50.03 6.85L50.03 6.85L50.03 6.85Q50.19 6.67 50.39 6.54L50.39 6.54L50.39 6.54Q50.59 6.41 50.83 6.34L50.83 6.34L50.83 6.34Q51.08 6.26 51.38 6.26L51.38 6.26L51.38 6.26Q51.58 6.26 51.81 6.31L51.81 6.31L51.81 6.31Q52.05 6.36 52.25 6.48L52.25 6.48L51.99 8.61L51.99 8.61Q51.93 8.60 51.82 8.59L51.82 8.59L51.82 8.59Q51.72 8.58 51.61 8.57L51.61 8.57L51.61 8.57Q51.50 8.57 51.39 8.56L51.39 8.56L51.39 8.56Q51.28 8.56 51.20 8.56L51.20 8.56L51.20 8.56Q50.51 8.56 49.97 8.83L49.97 8.83L49.97 8.83Q49.42 9.09 49.09 9.51L49.09 9.51L49.09 13.64L46.72 13.64ZM57.52 12.60L57.52 12.60L57.52 12.60Q57.32 12.77 57.06 12.97L57.06 12.97L57.06 12.97Q56.80 13.18 56.49 13.36L56.49 13.36L56.49 13.36Q56.18 13.54 55.84 13.66L55.84 13.66L55.84 13.66Q55.49 13.78 55.10 13.78L55.10 13.78L55.10 13.78Q54.63 13.78 54.27 13.60L54.27 13.60L54.27 13.60Q53.92 13.42 53.68 13.13L53.68 13.13L53.68 13.13Q53.44 12.83 53.32 12.46L53.32 12.46L53.32 12.46Q53.20 12.09 53.20 11.72L53.20 11.72L53.20 11.72Q53.20 11.22 53.43 10.77L53.43 10.77L53.43 10.77Q53.66 10.33 54.15 10.00L54.15 10.00L54.15 10.00Q54.63 9.67 55.38 9.47L55.38 9.47L55.38 9.47Q56.14 9.28 57.18 9.28L57.18 9.28L57.44 9.28L57.44 8.86L57.44 8.86Q57.44 8.31 57.10 8.02L57.10 8.02L57.10 8.02Q56.76 7.73 56.18 7.73L56.18 7.73L56.18 7.73Q55.93 7.73 55.65 7.79L55.65 7.79L55.65 7.79Q55.38 7.85 55.10 7.96L55.10 7.96L55.10 7.96Q54.82 8.07 54.55 8.21L54.55 8.21L54.55 8.21Q54.28 8.35 54.05 8.52L54.05 8.52L53.93 8.45L53.53 7.01L53.53 7.01Q54.41 6.60 55.19 6.43L55.19 6.43L55.19 6.43Q55.98 6.26 56.74 6.26L56.74 6.26L56.74 6.26Q57.39 6.26 57.95 6.38L57.95 6.38L57.95 6.38Q58.52 6.51 58.93 6.78L58.93 6.78L58.93 6.78Q59.34 7.06 59.58 7.51L59.58 7.51L59.58 7.51Q59.82 7.95 59.82 8.60L59.82 8.60L59.82 11.51L59.82 11.51Q59.82 11.63 59.84 11.75L59.84 11.75L59.84 11.75Q59.86 11.87 59.92 11.97L59.92 11.97L59.92 11.97Q59.97 12.07 60.07 12.13L60.07 12.13L60.07 12.13Q60.16 12.19 60.31 12.19L60.31 12.19L60.31 12.19Q60.41 12.19 60.50 12.17L60.50 12.17L60.50 12.17Q60.59 12.16 60.71 12.11L60.71 12.11L60.71 13.13L60.71 13.13Q60.27 13.43 59.82 13.61L59.82 13.61L59.82 13.61Q59.38 13.78 58.96 13.78L58.96 13.78L58.96 13.78Q58.42 13.78 58.07 13.47L58.07 13.47L58.07 13.47Q57.72 13.17 57.52 12.60ZM57.44 11.70L57.44 10.12L57.18 10.12L57.18 10.12Q56.64 10.12 56.29 10.20L56.29 10.20L56.29 10.20Q55.94 10.27 55.73 10.42L55.73 10.42L55.73 10.42Q55.52 10.56 55.44 10.76L55.44 10.76L55.44 10.76Q55.36 10.96 55.36 11.22L55.36 11.22L55.36 11.22Q55.36 11.48 55.43 11.66L55.43 11.66L55.43 11.66Q55.51 11.84 55.63 11.96L55.63 11.96L55.63 11.96Q55.76 12.08 55.93 12.13L55.93 12.13L55.93 12.13Q56.10 12.19 56.28 12.19L56.28 12.19L56.28 12.19Q56.53 12.19 56.82 12.08L56.82 12.08L56.82 12.08Q57.11 11.98 57.44 11.70L57.44 11.70ZM61.58 13.28L61.92 11.73L62.04 11.66L62.04 11.66Q62.61 11.97 63.22 12.14L63.22 12.14L63.22 12.14Q63.83 12.31 64.33 12.31L64.33 12.31L64.33 12.31Q64.61 12.31 64.82 12.25L64.82 12.25L64.82 12.25Q65.02 12.20 65.16 12.10L65.16 12.10L65.16 12.10Q65.29 12.00 65.35 11.88L65.35 11.88L65.35 11.88Q65.42 11.75 65.42 11.61L65.42 11.61L65.42 11.61Q65.42 11.39 65.27 11.25L65.27 11.25L65.27 11.25Q65.11 11.10 64.86 11.00L64.86 11.00L64.86 11.00Q64.60 10.90 64.27 10.82L64.27 10.82L64.27 10.82Q63.95 10.74 63.61 10.64L63.61 10.64L63.61 10.64Q63.27 10.54 62.95 10.40L62.95 10.40L62.95 10.40Q62.62 10.27 62.37 10.05L62.37 10.05L62.37 10.05Q62.11 9.83 61.96 9.51L61.96 9.51L61.96 9.51Q61.80 9.18 61.80 8.72L61.80 8.72L61.80 8.72Q61.80 8.18 62.03 7.72L62.03 7.72L62.03 7.72Q62.25 7.27 62.68 6.95L62.68 6.95L62.68 6.95Q63.12 6.62 63.75 6.44L63.75 6.44L63.75 6.44Q64.39 6.26 65.22 6.26L65.22 6.26L65.22 6.26Q65.43 6.26 65.70 6.28L65.70 6.28L65.70 6.28Q65.97 6.29 66.24 6.32L66.24 6.32L66.24 6.32Q66.52 6.34 66.78 6.39L66.78 6.39L66.78 6.39Q67.05 6.44 67.26 6.50L67.26 6.50L66.91 8.04L66.78 8.11L66.78 8.11Q66.29 7.91 65.81 7.82L65.81 7.82L65.81 7.82Q65.32 7.73 64.98 7.73L64.98 7.73L64.98 7.73Q64.70 7.73 64.50 7.79L64.50 7.79L64.50 7.79Q64.31 7.84 64.18 7.93L64.18 7.93L64.18 7.93Q64.06 8.03 64.00 8.15L64.00 8.15L64.00 8.15Q63.94 8.26 63.94 8.40L63.94 8.40L63.94 8.40Q63.94 8.64 64.10 8.79L64.10 8.79L64.10 8.79Q64.26 8.93 64.51 9.03L64.51 9.03L64.51 9.03Q64.76 9.13 65.09 9.21L65.09 9.21L65.09 9.21Q65.42 9.29 65.76 9.38L65.76 9.38L65.76 9.38Q66.10 9.47 66.42 9.61L66.42 9.61L66.42 9.61Q66.75 9.74 67.01 9.96L67.01 9.96L67.01 9.96Q67.26 10.18 67.42 10.50L67.42 10.50L67.42 10.50Q67.57 10.81 67.57 11.28L67.57 11.28L67.57 11.28Q67.57 11.78 67.37 12.23L67.37 12.23L67.37 12.23Q67.17 12.69 66.76 13.03L66.76 13.03L66.76 13.03Q66.35 13.37 65.72 13.58L65.72 13.58L65.72 13.58Q65.10 13.78 64.25 13.78L64.25 13.78L64.25 13.78Q63.93 13.78 63.58 13.75L63.58 13.75L63.58 13.75Q63.24 13.72 62.89 13.66L62.89 13.66L62.89 13.66Q62.55 13.60 62.21 13.50L62.21 13.50L62.21 13.50Q61.87 13.41 61.58 13.28L61.58 13.28ZM76.73 11.51L76.73 7.95L76.73 7.95Q76.41 7.81 76.16 7.77L76.16 7.77L76.16 7.77Q75.91 7.73 75.76 7.73L75.76 7.73L75.76 7.73Q75.29 7.73 74.95 7.92L74.95 7.92L74.95 7.92Q74.60 8.11 74.37 8.44L74.37 8.44L74.37 8.44Q74.14 8.76 74.03 9.19L74.03 9.19L74.03 9.19Q73.92 9.63 73.92 10.10L73.92 10.10L73.92 10.10Q73.92 10.57 74.02 10.95L74.02 10.95L74.02 10.95Q74.12 11.33 74.31 11.61L74.31 11.61L74.31 11.61Q74.50 11.89 74.76 12.04L74.76 12.04L74.76 12.04Q75.02 12.19 75.34 12.19L75.34 12.19L75.34 12.19Q75.69 12.19 76.06 12.01L76.06 12.01L76.06 12.01Q76.43 11.83 76.73 11.51L76.73 11.51ZM76.73 6.41L76.73 2.69L79.11 2.69L79.11 13.64L77.08 13.64L76.82 12.52L76.82 12.52Q76.56 12.75 76.29 12.97L76.29 12.97L76.29 12.97Q76.01 13.20 75.70 13.38L75.70 13.38L75.70 13.38Q75.39 13.56 75.04 13.67L75.04 13.67L75.04 13.67Q74.69 13.78 74.29 13.78L74.29 13.78L74.29 13.78Q73.64 13.78 73.12 13.49L73.12 13.49L73.12 13.49Q72.60 13.20 72.23 12.72L72.23 12.72L72.23 12.72Q71.87 12.24 71.67 11.62L71.67 11.62L71.67 11.62Q71.48 11.01 71.48 10.35L71.48 10.35L71.48 10.35Q71.48 9.78 71.63 9.25L71.63 9.25L71.63 9.25Q71.77 8.72 72.04 8.27L72.04 8.27L72.04 8.27Q72.30 7.81 72.68 7.44L72.68 7.44L72.68 7.44Q73.05 7.08 73.50 6.81L73.50 6.81L73.50 6.81Q73.96 6.55 74.48 6.41L74.48 6.41L74.48 6.41Q75.00 6.26 75.57 6.26L75.57 6.26L75.57 6.26Q75.92 6.26 76.23 6.31L76.23 6.31L76.23 6.31Q76.55 6.36 76.73 6.41L76.73 6.41ZM84.45 13.78L84.45 13.78L84.45 13.78Q83.51 13.78 82.81 13.49L82.81 13.49L82.81 13.49Q82.11 13.20 81.65 12.71L81.65 12.71L81.65 12.71Q81.18 12.22 80.95 11.58L80.95 11.58L80.95 11.58Q80.73 10.93 80.73 10.22L80.73 10.22L80.73 10.22Q80.73 9.39 81.03 8.67L81.03 8.67L81.03 8.67Q81.33 7.94 81.88 7.41L81.88 7.41L81.88 7.41Q82.43 6.88 83.21 6.57L83.21 6.57L83.21 6.57Q83.99 6.26 84.94 6.26L84.94 6.26L84.94 6.26Q85.87 6.26 86.57 6.55L86.57 6.55L86.57 6.55Q87.27 6.84 87.74 7.32L87.74 7.32L87.74 7.32Q88.20 7.81 88.44 8.46L88.44 8.46L88.44 8.46Q88.68 9.11 88.68 9.84L88.68 9.84L88.68 9.84Q88.68 10.68 88.37 11.41L88.37 11.41L88.37 11.41Q88.06 12.13 87.50 12.66L87.50 12.66L87.50 12.66Q86.95 13.19 86.17 13.48L86.17 13.48L86.17 13.48Q85.39 13.78 84.45 13.78ZM84.75 12.31L84.75 12.31L84.75 12.31Q85.07 12.31 85.34 12.17L85.34 12.17L85.34 12.17Q85.61 12.04 85.80 11.76L85.80 11.76L85.80 11.76Q86.00 11.48 86.12 11.07L86.12 11.07L86.12 11.07Q86.23 10.66 86.23 10.12L86.23 10.12L86.23 10.12Q86.23 9.60 86.12 9.17L86.12 9.17L86.12 9.17Q86.02 8.73 85.81 8.41L85.81 8.41L85.81 8.41Q85.61 8.09 85.32 7.91L85.32 7.91L85.32 7.91Q85.03 7.73 84.66 7.73L84.66 7.73L84.66 7.73Q84.33 7.73 84.05 7.88L84.05 7.88L84.05 7.88Q83.78 8.03 83.59 8.31L83.59 8.31L83.59 8.31Q83.39 8.59 83.28 9.00L83.28 9.00L83.28 9.00Q83.17 9.41 83.17 9.94L83.17 9.94L83.17 9.94Q83.17 10.48 83.28 10.92L83.28 10.92L83.28 10.92Q83.39 11.35 83.60 11.67L83.60 11.67L83.60 11.67Q83.80 11.98 84.09 12.14L84.09 12.14L84.09 12.14Q84.38 12.31 84.75 12.31ZM99.05 8.08L99.05 8.08L99.05 8.08Q99.44 8.18 99.83 8.38L99.83 8.38L99.83 8.38Q100.21 8.58 100.52 8.88L100.52 8.88L100.52 8.88Q100.83 9.17 101.02 9.57L101.02 9.57L101.02 9.57Q101.21 9.97 101.21 10.48L101.21 10.48L101.21 10.48Q101.21 11.08 100.91 11.65L100.91 11.65L100.91 11.65Q100.60 12.22 100.03 12.66L100.03 12.66L100.03 12.66Q99.45 13.10 98.60 13.37L98.60 13.37L98.60 13.37Q97.76 13.64 96.67 13.64L96.67 13.64L93.29 13.64L93.29 3.63L97.04 3.63L97.04 3.63Q97.96 3.63 98.66 3.80L98.66 3.80L98.66 3.80Q99.36 3.96 99.83 4.26L99.83 4.26L99.83 4.26Q100.30 4.56 100.54 4.96L100.54 4.96L100.54 4.96Q100.78 5.36 100.78 5.82L100.78 5.82L100.78 5.82Q100.78 6.19 100.64 6.50L100.64 6.50L100.64 6.50Q100.50 6.82 100.26 7.10L100.26 7.10L100.26 7.10Q100.02 7.37 99.71 7.61L99.71 7.61L99.71 7.61Q99.39 7.85 99.05 8.08ZM95.70 9.17L95.70 12.15L96.87 12.15L96.87 12.15Q97.32 12.15 97.67 12.02L97.67 12.02L97.67 12.02Q98.02 11.89 98.25 11.67L98.25 11.67L98.25 11.67Q98.49 11.45 98.60 11.17L98.60 11.17L98.60 11.17Q98.72 10.88 98.72 10.58L98.72 10.58L98.72 10.58Q98.72 10.20 98.57 9.93L98.57 9.93L98.57 9.93Q98.42 9.67 98.17 9.50L98.17 9.50L98.17 9.50Q97.91 9.32 97.56 9.25L97.56 9.25L97.56 9.25Q97.20 9.17 96.79 9.17L96.79 9.17L95.70 9.17ZM95.70 7.78L97.69 7.78L97.69 7.78Q97.99 7.57 98.20 7.21L98.20 7.21L98.20 7.21Q98.41 6.85 98.41 6.40L98.41 6.40L98.41 6.40Q98.41 6.10 98.30 5.87L98.30 5.87L98.30 5.87Q98.18 5.63 97.98 5.47L97.98 5.47L97.98 5.47Q97.77 5.30 97.47 5.21L97.47 5.21L97.47 5.21Q97.17 5.12 96.81 5.12L96.81 5.12L95.70 5.12L95.70 7.78ZM109.31 11.87L109.31 12.89L109.31 12.89Q108.94 13.15 108.55 13.32L108.55 13.32L108.55 13.32Q108.17 13.49 107.78 13.60L107.78 13.60L107.78 13.60Q107.40 13.70 107.03 13.74L107.03 13.74L107.03 13.74Q106.66 13.78 106.32 13.78L106.32 13.78L106.32 13.78Q105.44 13.78 104.74 13.55L104.74 13.55L104.74 13.55Q104.04 13.31 103.54 12.87L103.54 12.87L103.54 12.87Q103.05 12.42 102.79 11.77L102.79 11.77L102.79 11.77Q102.53 11.12 102.53 10.29L102.53 10.29L102.53 10.29Q102.53 9.34 102.85 8.60L102.85 8.60L102.85 8.60Q103.18 7.85 103.73 7.33L103.73 7.33L103.73 7.33Q104.28 6.82 105.01 6.54L105.01 6.54L105.01 6.54Q105.73 6.26 106.52 6.26L106.52 6.26L106.52 6.26Q107.21 6.26 107.79 6.47L107.79 6.47L107.79 6.47Q108.36 6.69 108.78 7.10L108.78 7.10L108.78 7.10Q109.20 7.51 109.44 8.12L109.44 8.12L109.44 8.12Q109.67 8.74 109.67 9.54L109.67 9.54L109.67 9.54Q109.67 9.80 109.65 10.01L109.65 10.01L109.65 10.01Q109.62 10.23 109.59 10.38L109.59 10.38L104.97 10.38L104.97 10.38Q104.97 10.86 105.13 11.20L105.13 11.20L105.13 11.20Q105.30 11.54 105.61 11.76L105.61 11.76L105.61 11.76Q105.92 11.98 106.36 12.09L106.36 12.09L106.36 12.09Q106.80 12.19 107.34 12.19L107.34 12.19L107.34 12.19Q107.53 12.19 107.77 12.17L107.77 12.17L107.77 12.17Q108.00 12.16 108.26 12.12L108.26 12.12L108.26 12.12Q108.51 12.09 108.78 12.03L108.78 12.03L108.78 12.03Q109.05 11.97 109.31 11.87L109.31 11.87ZM104.97 9.54L107.52 9.54L107.52 9.54Q107.52 9.07 107.42 8.73L107.42 8.73L107.42 8.73Q107.33 8.39 107.17 8.17L107.17 8.17L107.17 8.17Q107.00 7.94 106.78 7.84L106.78 7.84L106.78 7.84Q106.55 7.73 106.29 7.73L106.29 7.73L106.29 7.73Q105.99 7.73 105.75 7.85L105.75 7.85L105.75 7.85Q105.51 7.98 105.33 8.21L105.33 8.21L105.33 8.21Q105.16 8.44 105.06 8.78L105.06 8.78L105.06 8.78Q104.97 9.11 104.97 9.54L104.97 9.54ZM111.30 13.64L111.30 6.40L113.31 6.40L113.59 7.59L113.59 7.59Q113.84 7.37 114.13 7.14L114.13 7.14L114.13 7.14Q114.41 6.90 114.73 6.71L114.73 6.71L114.73 6.71Q115.06 6.51 115.40 6.39L115.40 6.39L115.40 6.39Q115.75 6.26 116.12 6.26L116.12 6.26L116.12 6.26Q116.50 6.26 116.82 6.37L116.82 6.37L116.82 6.37Q117.14 6.48 117.40 6.67L117.40 6.67L117.40 6.67Q117.65 6.86 117.84 7.11L117.84 7.11L117.84 7.11Q118.03 7.36 118.14 7.63L118.14 7.63L118.14 7.63Q118.42 7.40 118.71 7.15L118.71 7.15L118.71 7.15Q119.01 6.91 119.33 6.71L119.33 6.71L119.33 6.71Q119.65 6.51 120.01 6.39L120.01 6.39L120.01 6.39Q120.37 6.26 120.78 6.26L120.78 6.26L120.78 6.26Q121.30 6.26 121.71 6.46L121.71 6.46L121.71 6.46Q122.13 6.66 122.42 7L122.42 7L122.42 7Q122.71 7.34 122.87 7.80L122.87 7.80L122.87 7.80Q123.02 8.26 123.02 8.78L123.02 8.78L123.02 13.64L120.64 13.64L120.64 9.11L120.64 9.11Q120.64 8.82 120.57 8.59L120.57 8.59L120.57 8.59Q120.49 8.35 120.35 8.19L120.35 8.19L120.35 8.19Q120.22 8.03 120.03 7.95L120.03 7.95L120.03 7.95Q119.85 7.86 119.62 7.86L119.62 7.86L119.62 7.86Q119.27 7.86 118.96 8.05L118.96 8.05L118.96 8.05Q118.66 8.23 118.33 8.52L118.33 8.52L118.33 8.52Q118.34 8.58 118.34 8.64L118.34 8.64L118.34 8.64Q118.34 8.71 118.34 8.78L118.34 8.78L118.34 13.64L115.97 13.64L115.97 9.11L115.97 9.11Q115.97 8.52 115.68 8.19L115.68 8.19L115.68 8.19Q115.40 7.86 114.95 7.86L114.95 7.86L114.95 7.86Q114.60 7.86 114.30 8.05L114.30 8.05L114.30 8.05Q114.00 8.23 113.67 8.51L113.67 8.51L113.67 13.64L111.30 13.64Z"></path></g><!----><g data-v-423bf9ae="" id="a167d399-35ae-4486-bdba-35c2503f3627" transform="matrix(1.1095930337905884,0,0,1.1095930337905884,381.7559509277344,-283.4746398925781)" stroke="none" fill="black"><path d="M-270.506 296.571c2.956.53 5.261 2.004 6.668 4.262 1.765 2.835 2.047 6.81.791 11.195a15.772 15.772 0 0 1-.633 1.781c-2.146 5.058-6.734 8.244-11.392 8.244-.922 0-1.85-.124-2.762-.386a2.142 2.142 0 0 1-1.466-2.646 2.145 2.145 0 0 1 2.644-1.466c3.439.998 7.315-1.345 9.038-5.412.175-.413.331-.851.463-1.302.902-3.153.79-5.98-.312-7.749-.771-1.238-2.013-1.995-3.795-2.314-2.618-.467-5.69.518-6.627 3.791a2.14 2.14 0 0 1-2.644 1.467 2.136 2.136 0 0 1-1.467-2.642 9.846 9.846 0 0 1 1.555-3.161l-22.687 12.136 3.444 16.274h36.963c8.106-7.165 14.773-20.772 14.773-32.065 0-4.309-.74-8.568-2.05-12.625l-23.378 12.5c.931-.068 1.886-.06 2.874.118z"></path><circle cx="-316.179" cy="315.062" r="2.851"></circle><circle cx="-325.352" cy="312.077" r="2.851"></circle><circle cx="-309.676" cy="321.964" r="2.852"></circle><circle cx="-308.339" cy="331.048" r="2.851"></circle><path d="M-298.774 332.958l-15.866 17.809c-4.065-.537-18.011-3.42-22.446-17.998-4.874-16.012 4.05-27.101 7.091-30.29l22.184 7.546 56.279-30.101c-5.874-13.4-18.492-23.657-34.012-23.786-16.893-.142-34.019 10.871-37.447 28.396-.718 3.106-1.532 11.223-1.532 11.223l-2.062 2.915-4.556-1.549-1.021.899c-.658.579-16.024 14.432-9.424 36.117 6.068 19.948 27.549 21.423 27.765 21.437l1.137.066 7.819-8.775V356h40.582l.263-23.08h-34.761l.007.038zm-12.017-41.322c2.268 0 4.1 1.833 4.1 4.096 0 2.265-1.832 4.1-4.1 4.1a4.098 4.098 0 0 1 0-8.196z"></path></g><!----></svg>