<svg data-v-fde0c5aa="" xmlns="http://www.w3.org/2000/svg" viewBox="0 0 300 300" class="icon"><!----><defs data-v-fde0c5aa=""><linearGradient data-v-fde0c5aa="" gradientTransform="rotate(25)" id="21e1dcc2-a17d-4eed-937e-a69baa5d21d6" x1="0%" y1="0%" x2="100%" y2="0%"><stop data-v-fde0c5aa="" offset="0%" stop-color="#395ECA" stop-opacity="1"></stop><stop data-v-fde0c5aa="" offset="100%" stop-color="#848BD8" stop-opacity="1"></stop></linearGradient></defs><rect data-v-fde0c5aa="" fill="url(#21e1dcc2-a17d-4eed-937e-a69baa5d21d6)" x="0" y="0" width="300px" height="300px" class="logo-background-square"></rect><!----><defs data-v-fde0c5aa=""><!----></defs><g data-v-fde0c5aa="" id="4f67bb54-c99a-4179-b106-5b08811d27cb" fill="#ffffff" stroke="none" transform="matrix(2.203009843826294,0,0,2.203009843826294,801.1893890059142,-524.2715282079429)"><path d="M-270.506 296.571c2.956.53 5.261 2.004 6.668 4.262 1.765 2.835 2.047 6.81.791 11.195a15.772 15.772 0 0 1-.633 1.781c-2.146 5.058-6.734 8.244-11.392 8.244-.922 0-1.85-.124-2.762-.386a2.142 2.142 0 0 1-1.466-2.646 2.145 2.145 0 0 1 2.644-1.466c3.439.998 7.315-1.345 9.038-5.412.175-.413.331-.851.463-1.302.902-3.153.79-5.98-.312-7.749-.771-1.238-2.013-1.995-3.795-2.314-2.618-.467-5.69.518-6.627 3.791a2.14 2.14 0 0 1-2.644 1.467 2.136 2.136 0 0 1-1.467-2.642 9.846 9.846 0 0 1 1.555-3.161l-22.687 12.136 3.444 16.274h36.963c8.106-7.165 14.773-20.772 14.773-32.065 0-4.309-.74-8.568-2.05-12.625l-23.378 12.5c.931-.068 1.886-.06 2.874.118z"></path><circle cx="-316.179" cy="315.062" r="2.851"></circle><circle cx="-325.352" cy="312.077" r="2.851"></circle><circle cx="-309.676" cy="321.964" r="2.852"></circle><circle cx="-308.339" cy="331.048" r="2.851"></circle><path d="M-298.774 332.958l-15.866 17.809c-4.065-.537-18.011-3.42-22.446-17.998-4.874-16.012 4.05-27.101 7.091-30.29l22.184 7.546 56.279-30.101c-5.874-13.4-18.492-23.657-34.012-23.786-16.893-.142-34.019 10.871-37.447 28.396-.718 3.106-1.532 11.223-1.532 11.223l-2.062 2.915-4.556-1.549-1.021.899c-.658.579-16.024 14.432-9.424 36.117 6.068 19.948 27.549 21.423 27.765 21.437l1.137.066 7.819-8.775V356h40.582l.263-23.08h-34.761l.007.038zm-12.017-41.322c2.268 0 4.1 1.833 4.1 4.096 0 2.265-1.832 4.1-4.1 4.1a4.098 4.098 0 0 1 0-8.196z"></path></g><!----></svg>